<svg width="16" height="25" viewBox="0 0 16 25" fill="none" xmlns="http://www.w3.org/2000/svg">
<g clip-path="url(#clip0_1_19)">
<path d="M10.1197 24.7457C11.4723 24.3693 12.6839 23.6389 13.6495 22.6644C15.0989 21.2016 15.998 19.1834 15.998 16.9617V8.07292C15.998 5.85124 15.0989 3.83301 13.6495 2.3702C12.2001 0.907389 10.2003 0 7.99899 0C5.79967 0 3.79791 0.907389 2.34849 2.3702C0.89908 3.83301 0 5.85327 0 8.07292V16.9596C0 19.1813 0.89908 21.1995 2.34849 22.6624C3.47537 23.7996 4.93285 24.6012 6.55966 24.9023C7.5434 25.0855 9.21255 24.998 10.1197 24.7457ZM7.90828 18.7297C8.74487 18.7297 9.43026 18.0379 9.43026 17.1936V15.6108C9.43026 14.7664 8.74487 14.0747 7.90828 14.0747C7.07169 14.0747 6.38629 14.7664 6.38629 15.6108V17.1936C6.38629 18.0379 7.06967 18.7297 7.90828 18.7297ZM12.313 21.3155C11.2062 22.4325 9.67822 23.1283 7.99899 23.1283C6.31977 23.1283 4.79375 22.4345 3.68502 21.3155C2.5783 20.1986 1.88887 18.6564 1.88887 16.9617V8.07292C1.88887 6.37817 2.57629 4.83805 3.68502 3.71908C4.79173 2.60213 6.31977 1.90633 7.99899 1.90633C9.67822 1.90633 11.2042 2.6001 12.313 3.71908C13.4197 4.83602 14.1091 6.37817 14.1091 8.07292V16.9596C14.1091 18.6564 13.4217 20.1965 12.313 21.3155Z" fill="#CECECE"/>
</g>
<defs>
<clipPath id="clip0_1_19">
<rect width="16" height="25" fill="white"/>
</clipPath>
</defs>
</svg>
